<?xml version="1.0" encoding="UTF-8"?>
<svg version="1.1" xmlns="http://www.w3.org/2000/svg" width="1000" height="1000">
<path d="M0 0 C93.39 0 186.78 0 283 0 C303.11434511 44.6985447 303.11434511 44.6985447 311.23974609 63.03027344 C315.05068915 71.62655625 318.86942901 80.21938144 322.6875 88.8125 C323.3344986 90.26878311 323.3344986 90.26878311 323.99456787 91.75448608 C330.15213144 105.61251953 336.33106429 119.46079463 342.53036499 133.30020142 C348.80802486 147.31603189 355.04812738 161.3483753 361.28076172 175.38427734 C367.00091638 188.26500773 372.73831991 201.13779224 378.5 214 C385.1217855 228.78228215 391.70715792 243.58051156 398.28076172 258.38427734 C404.00091638 271.26500773 409.73831991 284.13779224 415.5 297 C422.1217855 311.78228215 428.70715792 326.58051156 435.28076172 341.38427734 C441.34101413 355.03084497 447.42330729 368.66728902 453.52770996 382.29415894 C459.89687298 396.51380418 466.22691914 410.75066527 472.55029297 424.99072266 C477.51449586 436.16910758 482.48764734 447.34310419 487.5 458.5 C492.95001476 470.63107914 498.35268627 482.7829035 503.75 494.9375 C509.98002953 508.96733027 516.2242234 522.99057175 522.5 537 C529.12183189 551.78226128 535.707158 566.58051173 542.28076172 581.38427734 C548.00091638 594.26500773 553.73831991 607.13779224 559.5 620 C566.11637896 634.77021276 572.6964739 649.55631589 579.26464844 664.34802246 C586.02529903 679.57194288 592.81239246 694.78383949 599.62109375 709.98632812 C599.95508179 710.73207092 600.28906982 711.47781372 600.63317871 712.24615479 C601.24377408 713.60930565 601.85451583 714.97239097 602.4654541 716.33538818 C604.65366496 721.21922342 606.8264583 726.10953118 609 731 C609.33 489.77 609.66 248.54 610 0 C665.44 0 720.88 0 778 0 C778 293.04 778 586.08 778 888 C687.58 888 597.16 888 504 888 C482.78128238 841.09546632 482.78128238 841.09546632 474.73095703 822.90673828 C470.99707865 814.47516022 467.24610922 806.05114853 463.5 797.625 C461.76290805 793.71749804 460.02593284 789.80994422 458.2890625 785.90234375 C457.85191422 784.91885956 457.41476593 783.93537537 456.96437073 782.92208862 C454.36190229 777.0664224 451.7613221 771.20992215 449.16244507 765.35266113 C447.06726729 760.63065781 444.97133865 755.90898806 442.875 751.1875 C442.46066711 750.25427917 442.04633423 749.32105835 441.6194458 748.35955811 C435.38015095 734.31089318 429.08407035 720.28865429 422.75918579 706.27835083 C416.72801548 692.91224592 410.81439651 679.4973475 404.9418335 666.06091309 C399.22790485 652.99437703 393.40048044 639.98328435 387.5 627 C381.21347679 613.16727581 375.02252852 599.29755586 368.9375 585.375 C363.07587766 571.96506766 357.14674916 558.58882576 351.125 545.25 C344.7484502 531.12317088 338.41464644 516.9782507 332.125 502.8125 C331.70980103 501.87753693 331.29460205 500.94257385 330.86682129 499.97927856 C327.48596088 492.36546631 324.10754111 484.75057176 320.72924805 477.13562012 C317.7789747 470.48573914 314.82762056 463.83633913 311.875 457.1875 C311.46012329 456.25310089 311.04524658 455.31870178 310.61779785 454.35598755 C304.37906355 440.30850735 298.08353125 426.28746012 291.75918579 412.27835083 C285.72801548 398.91224592 279.81439651 385.4973475 273.9418335 372.06091309 C268.22790485 358.99437703 262.40048044 345.98328435 256.5 333 C250.21347737 319.1672771 244.02244503 305.29759175 237.9375 291.375 C231.99400479 277.7769542 225.97965653 264.21399833 219.875 250.6875 C212.60511489 234.57722856 205.3973482 218.44072485 198.23242188 202.28352356 C195.41555855 195.93270214 192.59113515 189.5852596 189.765625 183.23828125 C188.41186208 180.19626676 187.05818246 177.15421521 185.70452881 174.1121521 C184.83133694 172.15028643 183.95785171 170.1885513 183.08404541 168.22695923 C181.85461641 165.46680681 180.62641334 162.70611166 179.3984375 159.9453125 C179.04275696 159.14760941 178.68707642 158.34990631 178.32061768 157.5280304 C175.14351133 150.37990789 172.08241963 143.19231247 169 136 C168.67 384.16 168.34 632.32 168 888 C112.56 888 57.12 888 0 888 C0 594.96 0 301.92 0 0 Z " fill="#5689AF" transform="translate(111,56)"/>
</svg>
