<svg width="110" height="20" viewBox="0 0 110 20" fill="none" xmlns="http://www.w3.org/2000/svg">
<g clip-path="url(#clip0_54721_1149)">
<path d="M6.47146 0.619994L13.4415 16.2V0.619994H16.9915V19.39H11.2115L4.05146 3.37999V19.39H0.501465V0.619994H6.47146ZM19.4915 10.03C19.4915 7.37999 20.4215 5.11999 22.2915 3.23999C24.1515 1.35999 26.4115 0.429994 29.0615 0.429994C31.7115 0.429994 33.9715 1.36999 35.8415 3.22999C37.7115 5.09999 38.6415 7.35999 38.6615 10.03V10.11C38.6615 12.72 37.7315 14.95 35.8615 16.79C33.9815 18.67 31.7115 19.61 29.0615 19.61C26.4115 19.61 24.1515 18.68 22.2815 16.81C20.4115 14.94 19.4815 12.68 19.4815 10.04L19.4915 10.03ZM24.8115 14.4C25.9415 15.62 27.3515 16.23 29.0615 16.23C30.7715 16.23 32.1815 15.63 33.3215 14.43C34.4615 13.23 35.0315 11.77 35.0315 10.03C35.0315 8.28999 34.4615 6.81999 33.3215 5.59999C32.1815 4.37999 30.7615 3.76999 29.0615 3.76999C27.3615 3.76999 25.9615 4.37999 24.8115 5.59999C23.6615 6.81999 23.0915 8.28999 23.0915 10.03C23.0915 11.77 23.6615 13.2 24.8115 14.4ZM38.5015 0.619994H42.3515L46.8215 9.43999L51.2815 0.619994H55.1315L48.6815 13.41V19.39H45.0515V13.52L38.5015 0.619994ZM53.4015 19.39L59.9615 0.619994H65.5815L71.9815 19.39H68.2415L66.9215 15.48H58.5315L57.1615 19.39H53.4015ZM65.8515 12.2L62.7615 2.91999L59.6115 12.2H65.8515ZM74.9215 3.21999C76.7915 1.33999 79.0415 0.399994 81.7015 0.399994C83.6015 0.399994 85.3115 0.919994 86.8415 1.96999C88.3615 3.01999 89.5115 4.39999 90.2815 6.10999L86.8415 7.09999C86.3415 6.09999 85.6415 5.29999 84.7615 4.70999C83.8715 4.11999 82.8515 3.81999 81.7115 3.81999C80.0115 3.81999 78.5915 4.40999 77.4515 5.59999C76.3115 6.78999 75.7415 8.24999 75.7415 9.98999C75.7415 11.73 76.3115 13.18 77.4515 14.36C78.5915 15.54 80.0115 16.13 81.7115 16.13C84.0615 16.13 85.7515 15.08 86.7715 12.97L90.2715 13.91C89.5215 15.61 88.3815 16.98 86.8715 18.01C85.3615 19.05 83.6415 19.56 81.7215 19.56C79.0715 19.56 76.8115 18.63 74.9415 16.76C73.0715 14.89 72.1415 12.63 72.1415 9.98999C72.1415 7.34999 73.0715 5.07999 74.9415 3.19999L74.9215 3.21999ZM92.6415 19.39V0.619994H96.3015V9.86999L104.421 0.619994H108.891L101.151 9.27999L109.111 19.39H104.641L98.7815 11.96L96.3115 14.72V19.39H92.6515H92.6415Z" fill="url(#paint0_linear_54721_1149)"/>
</g>
<defs>
<linearGradient id="paint0_linear_54721_1149" x1="0.501465" y1="9.99999" x2="109.101" y2="9.99999" gradientUnits="userSpaceOnUse">
<stop stop-color="#01215D"/>
<stop offset="0.42" stop-color="#0067A7"/>
<stop offset="0.76" stop-color="#4BBACE"/>
<stop offset="1" stop-color="#7FD0B0"/>
</linearGradient>
<clipPath id="clip0_54721_1149">
<rect width="108.6" height="19.8" fill="white" transform="translate(0.501465 0.100006)"/>
</clipPath>
</defs>
</svg>
